<svg width="48" height="48" viewBox="0 0 48 48" fill="none" xmlns="http://www.w3.org/2000/svg">
<g clip-path="url(#clip0_6066_6644)">
<path d="M0 0H48V48H0V0Z" fill="url(#paint0_linear_6066_6644)"/>
<path d="M35.1431 28.2765C34.9957 28.6923 34.8406 29.0891 34.6769 29.4697C34.2892 30.3451 33.8121 31.1781 33.2531 31.9554C32.5066 32.9925 31.8937 33.7091 31.4214 34.1068C30.6903 34.7617 29.906 35.0968 29.066 35.1148C28.4634 35.1148 27.7374 34.9485 26.8906 34.6108C26.042 34.274 25.262 34.1077 24.5488 34.1077C23.8014 34.1077 22.9991 34.274 22.1403 34.6108C21.2814 34.9485 20.5888 35.1251 20.06 35.1423C19.2543 35.1757 18.4529 34.832 17.6514 34.1077C17.1406 33.674 16.5011 32.9308 15.7349 31.8791C14.9129 30.7563 14.2374 29.4517 13.7086 27.9654C13.1411 26.3608 12.8574 24.8068 12.8574 23.3025C12.8574 21.5797 13.2406 20.0934 14.0077 18.848C14.5939 17.864 15.4241 17.048 16.418 16.4788C17.4082 15.9043 18.5304 15.5963 19.6751 15.5848C20.3146 15.5848 21.1528 15.7777 22.1951 16.1548C23.234 16.5345 23.9008 16.7265 24.194 16.7265C24.4126 16.7265 25.154 16.502 26.4097 16.0537C27.5977 15.638 28.6006 15.4657 29.4226 15.5334C31.6486 15.7083 33.32 16.562 34.4326 18.098C32.4423 19.2705 31.4583 20.912 31.4771 23.018C31.4951 24.6594 32.1071 26.0257 33.3106 27.11C33.8464 27.6057 34.4672 28.0009 35.1431 28.2765ZM29.5443 9.42969C29.5614 9.60112 29.57 9.7734 29.57 9.94397C29.57 11.2297 29.0874 12.4314 28.1248 13.5423C26.9617 14.864 25.5551 15.6268 24.0294 15.5068C24.0089 15.3451 23.9986 15.1822 23.9986 15.0191C23.9986 13.7848 24.5514 12.4631 25.5337 11.3831C26.024 10.8363 26.648 10.3811 27.4023 10.0185C28.1583 9.66112 28.8731 9.46397 29.5443 9.42969Z" fill="white"/>
</g>
<defs>
<linearGradient id="paint0_linear_6066_6644" x1="8.92971" y1="8.32457" x2="58.4117" y2="65.1574" gradientUnits="userSpaceOnUse">
<stop stop-color="#1A1E21"/>
<stop offset="1" stop-color="#06060A"/>
</linearGradient>
<clipPath id="clip0_6066_6644">
<path d="M0 16C0 7.16344 7.16344 0 16 0H32C40.8366 0 48 7.16344 48 16V32C48 40.8366 40.8366 48 32 48H16C7.16344 48 0 40.8366 0 32V16Z" fill="white"/>
</clipPath>
</defs>
</svg>
