<svg width="152" height="32" viewBox="0 0 152 32" fill="none" xmlns="http://www.w3.org/2000/svg">
<path d="M47.3311 28.1201C44.2105 28.1725 41.7458 26.8401 41.5096 23.9136C41.5091 23.8894 41.5135 23.8653 41.5225 23.8428C41.5315 23.8203 41.545 23.7999 41.5622 23.7828C41.5794 23.7658 41.5999 23.7523 41.6224 23.7434C41.6449 23.7344 41.669 23.7301 41.6933 23.7308H43.6872C43.7922 23.7308 43.8708 23.809 43.8973 23.9136C44.1331 25.6119 45.4966 26.3966 47.3845 26.3966C49.5873 26.3966 51.108 25.0902 51.108 22.0591V20.5438C50.2426 22.0336 48.8005 22.9213 46.9132 22.9213C43.1372 22.9213 41.1445 20.0736 41.1445 16.2327C41.1445 12.4179 43.1897 9.33496 46.8346 9.33496C48.7225 9.33496 50.1646 10.1447 51.0564 11.6342L50.9775 9.72665C50.9769 9.70244 50.9813 9.67837 50.9903 9.6559C50.9994 9.63343 51.0129 9.61302 51.0301 9.59593C51.0472 9.57883 51.0677 9.5654 51.0902 9.55645C51.1128 9.54749 51.1369 9.54321 51.1611 9.54384H53.1808C53.2051 9.54321 53.2292 9.54749 53.2517 9.55645C53.2742 9.5654 53.2947 9.57883 53.3119 9.59593C53.3291 9.61302 53.3426 9.63343 53.3516 9.6559C53.3607 9.67837 53.365 9.70244 53.3645 9.72665L53.312 14.9261L53.3381 22.0855C53.362 25.9524 51.1854 28.1201 47.3311 28.1201ZM47.4358 21.2226C49.6386 21.2226 51.0806 19.6546 51.1067 16.3364C51.1332 13.1228 49.8744 11.1895 47.6456 11.0324H47.1984C44.7862 11.1109 43.5539 13.0964 43.5539 16.1536C43.5551 19.3942 44.8661 21.2493 47.4358 21.2232V21.2226Z" fill="white"/>
<path d="M65.0977 22.9989C65.0735 22.9995 65.0494 22.9952 65.0269 22.9862C65.0044 22.9772 64.984 22.9638 64.9668 22.9467C64.9497 22.9296 64.9362 22.9092 64.9272 22.8868C64.9182 22.8643 64.9138 22.8403 64.9144 22.8161L64.9666 20.8297C64.049 22.3452 62.605 23.2599 60.64 23.2599C56.9952 23.2599 55.0547 20.2027 55.0547 16.3097C55.0547 12.4167 57.1263 9.28125 60.6925 9.28125C62.6066 9.28125 64.0484 10.0913 64.9405 11.5805L64.8879 9.7254C64.8874 9.70118 64.8918 9.67711 64.9008 9.65464C64.9098 9.63217 64.9234 9.61177 64.9405 9.59467C64.9577 9.57758 64.9782 9.56414 65.0007 9.55519C65.0232 9.54624 65.0473 9.54195 65.0716 9.54259H67.1155C67.1398 9.54195 67.1639 9.54624 67.1864 9.55519C67.209 9.56414 67.2294 9.57758 67.2466 9.59467C67.2638 9.61177 67.2773 9.63217 67.2863 9.65464C67.2954 9.67711 67.2997 9.70118 67.2992 9.7254L67.2206 16.1529L67.302 22.817C67.3024 22.8414 67.2979 22.8656 67.2886 22.8881C67.2793 22.9107 67.2656 22.9311 67.2481 22.9482C67.2306 22.9652 67.2099 22.9785 67.1871 22.9872C67.1643 22.9959 67.1399 22.9999 67.1155 22.9989H65.0977ZM61.2447 21.5091C63.5782 21.5091 64.9945 19.7846 65.0206 16.3879C65.0467 13.1218 63.7883 11.1885 61.5594 11.0315H61.1135C58.6489 11.11 57.4951 13.173 57.4951 16.1266C57.4936 19.3417 58.6995 21.5091 61.2428 21.5091H61.2447Z" fill="white"/>
<path d="M69.7596 22.9985C69.7353 22.9991 69.7113 22.9948 69.6888 22.9858C69.6663 22.9768 69.6458 22.9634 69.6287 22.9463C69.6116 22.9292 69.5981 22.9088 69.5891 22.8864C69.58 22.8639 69.5757 22.8399 69.5762 22.8157L69.6548 13.7493L69.5762 4.89186C69.5757 4.86767 69.58 4.84363 69.5891 4.82118C69.5981 4.79873 69.6116 4.77834 69.6287 4.76125C69.6458 4.74416 69.6663 4.73072 69.6888 4.72174C69.7113 4.71277 69.7353 4.70845 69.7596 4.70905H71.7793C71.8035 4.70841 71.8276 4.7127 71.8502 4.72165C71.8727 4.73061 71.8932 4.74404 71.9103 4.76113C71.9275 4.77823 71.941 4.79863 71.9501 4.8211C71.9591 4.84357 71.9635 4.86765 71.9629 4.89186L71.8843 13.7233L71.9629 22.8172C71.9635 22.8415 71.9591 22.8655 71.9501 22.888C71.941 22.9105 71.9275 22.9309 71.9103 22.948C71.8932 22.9651 71.8727 22.9785 71.8502 22.9874C71.8276 22.9964 71.8035 23.0007 71.7793 23.0001L69.7596 22.9985Z" fill="white"/>
<path d="M83.7149 22.9989C83.6906 22.9995 83.6666 22.9952 83.644 22.9862C83.6215 22.9772 83.6011 22.9638 83.5839 22.9467C83.5668 22.9296 83.5532 22.9092 83.5442 22.8868C83.5351 22.8643 83.5307 22.8403 83.5312 22.8161L83.5837 20.8297C82.6662 22.3452 81.2238 23.2599 79.2572 23.2599C75.6124 23.2599 73.6719 20.2027 73.6719 16.3097C73.6719 12.4167 75.7435 9.28125 79.3097 9.28125C81.2238 9.28125 82.6656 10.0913 83.5573 11.5805L83.5051 9.7254C83.5046 9.70118 83.509 9.67711 83.518 9.65464C83.527 9.63217 83.5406 9.61177 83.5577 9.59467C83.5749 9.57758 83.5954 9.56414 83.6179 9.55519C83.6404 9.54624 83.6645 9.54195 83.6888 9.54259H85.734C85.7582 9.54195 85.7823 9.54624 85.8049 9.55519C85.8274 9.56414 85.8479 9.57758 85.865 9.59467C85.8822 9.61177 85.8957 9.63217 85.9048 9.65464C85.9138 9.67711 85.9182 9.70118 85.9176 9.7254L85.8387 16.1529L85.9176 22.8158C85.9181 22.84 85.9137 22.864 85.9047 22.8865C85.8956 22.9089 85.8821 22.9293 85.8649 22.9464C85.8478 22.9635 85.8273 22.9769 85.8048 22.9859C85.7823 22.9948 85.7582 22.9992 85.734 22.9986L83.7149 22.9989ZM79.8619 21.5091C82.1954 21.5091 83.6117 19.7846 83.6378 16.3879C83.6639 13.1218 82.4055 11.1885 80.1766 11.0315H79.7307C77.2657 11.11 76.1123 13.173 76.1123 16.1266C76.1108 19.3417 77.3167 21.5091 79.8603 21.5091H79.8619Z" fill="white"/>
<path d="M96.6399 22.9991C96.5349 22.9991 96.4038 22.9467 96.3513 22.8439L92.9954 17.3571L89.6386 22.8439C89.5861 22.9482 89.455 22.9991 89.35 22.9991H87.2261C87.2079 22.9997 87.1898 22.9951 87.1741 22.9858C87.1583 22.9765 87.1456 22.9629 87.1373 22.9466C87.129 22.9302 87.1256 22.9119 87.1274 22.8937C87.1292 22.8756 87.1362 22.8583 87.1475 22.8439L91.5266 15.8676L87.5145 9.70079C87.5027 9.68646 87.4953 9.66902 87.4932 9.65057C87.4912 9.63213 87.4945 9.61349 87.5028 9.59689C87.5111 9.5803 87.5241 9.56648 87.5401 9.5571C87.5561 9.54772 87.5746 9.54319 87.5931 9.54405H89.927C90.0317 9.54405 90.1631 9.59619 90.2153 9.70079L93.257 14.6389L96.194 9.70079C96.2263 9.65381 96.2693 9.61513 96.3194 9.58789C96.3695 9.56065 96.4254 9.54563 96.4824 9.54405H98.5276C98.5462 9.54319 98.5646 9.54772 98.5806 9.5571C98.5966 9.56648 98.6096 9.5803 98.6179 9.59689C98.6262 9.61349 98.6295 9.63213 98.6275 9.65057C98.6254 9.66902 98.618 9.68646 98.6062 9.70079L94.7255 15.9455L99.0521 22.8439C99.0634 22.8583 99.0704 22.8756 99.0722 22.8937C99.074 22.9119 99.0706 22.9302 99.0623 22.9466C99.0541 22.9629 99.0413 22.9765 99.0256 22.9858C99.0098 22.9951 98.9918 22.9997 98.9735 22.9991H96.6399Z" fill="white"/>
<path d="M105.72 27.2586C105.705 27.3103 105.675 27.356 105.632 27.389C105.59 27.4219 105.538 27.4404 105.484 27.4417H103.57C103.548 27.4408 103.527 27.435 103.508 27.4246C103.489 27.4143 103.472 27.3998 103.46 27.3821C103.447 27.3645 103.438 27.3442 103.435 27.3228C103.431 27.3013 103.433 27.2794 103.439 27.2586L104.907 23.026L99.6106 9.72676C99.5578 9.62216 99.6106 9.54395 99.7153 9.54395H102.049C102.103 9.54523 102.155 9.56367 102.197 9.59656C102.24 9.62946 102.27 9.67509 102.285 9.72676L106.14 19.9167L109.391 9.72676C109.406 9.67514 109.436 9.62955 109.479 9.59666C109.521 9.56376 109.573 9.54529 109.627 9.54395H111.725C111.83 9.54395 111.882 9.62216 111.856 9.72676L105.72 27.2586Z" fill="white"/>
<path d="M149.643 18.4587H151.608C151.714 18.4587 151.794 18.5384 151.767 18.6446C151.369 21.4597 149.298 23.5311 145.765 23.5311C141.516 23.5311 139.232 20.5833 139.232 16.4138C139.232 12.1381 141.676 9.2168 145.633 9.2168C149.616 9.2168 151.953 11.9522 152.006 16.52C152.006 16.6262 151.927 16.7059 151.82 16.7059H141.649C141.729 19.999 143.11 21.7518 145.792 21.7518C147.837 21.7518 149.032 20.6629 149.43 18.6446C149.457 18.5384 149.537 18.4587 149.643 18.4587ZM149.404 15.0063C149.324 12.8286 148.076 10.9696 145.659 10.9696C143.402 10.9696 142.074 12.4302 141.729 15.0063H149.404Z" fill="#C9B1FF"/>
<path d="M128.658 23.2124H126.534C126.427 23.2124 126.348 23.1328 126.348 23.0265L126.427 16.9715L126.374 9.72138C126.374 9.61515 126.454 9.53548 126.56 9.53548H128.552C128.658 9.53548 128.738 9.61515 128.738 9.72138L128.685 11.846C129.508 10.465 131.048 9.2168 133.226 9.2168C136.041 9.2168 137.82 11.0758 137.82 14.6345V17.3698L137.873 23.0265C137.873 23.1328 137.794 23.2124 137.688 23.2124H135.59C135.483 23.2124 135.404 23.1328 135.404 23.0265L135.457 17.3698V14.7407C135.457 12.2709 134.288 11.1555 132.562 11.1555C130.783 11.1555 129.322 12.5896 128.791 15.2984V17.3698L128.844 23.0265C128.844 23.1328 128.764 23.2124 128.658 23.2124Z" fill="#C9B1FF"/>
<path d="M124.89 16.3833C124.89 20.7085 122.568 23.592 118.376 23.592C114.211 23.592 111.861 20.7619 111.861 16.4367C111.861 12.0847 114.211 9.20117 118.376 9.20117C122.568 9.20117 124.89 12.058 124.89 16.3833ZM114.318 16.4367C114.318 19.8809 115.679 21.8032 118.376 21.8032C121.073 21.8032 122.381 19.8809 122.381 16.4367C122.381 12.9925 121.046 10.99 118.376 10.99C115.653 11.0167 114.318 12.9925 114.318 16.4367Z" fill="#C9B1FF"/>
<path d="M4.71528 4.70994H27.4832V27.4505C30.3962 24.5407 32.1984 20.5214 32.1984 16.0811C32.1984 7.20069 24.9905 0 16.0994 0C7.20824 0 0 7.20069 0 16.0811C0 20.5195 1.80221 24.537 4.71528 27.4464V4.70994Z" fill="white"/>
<path d="M4.72013 27.4512H4.71484V31.9994H27.4827V27.4512H27.4812H4.72013Z" fill="white"/>
</svg>
