<svg preserveAspectRatio="none" width="100%" height="100%" overflow="visible" style="display: block;" viewBox="0 0 49 49" fill="none" xmlns="http://www.w3.org/2000/svg">
<g id="Quotes" clip-path="url(#clip0_0_4)">
<g id="Vector">
</g>
<path id="Vector_2" d="M29.125 11.5458V24.6455C29.1229 26.5399 28.3321 28.3562 26.926 29.6958C25.5199 31.0354 23.6135 31.7888 21.625 31.7908C21.2935 31.7908 20.9755 31.6653 20.7411 31.442C20.5067 31.2186 20.375 30.9157 20.375 30.5999C20.375 30.284 20.5067 29.9811 20.7411 29.7578C20.9755 29.5345 21.2935 29.409 21.625 29.409C22.9511 29.409 24.2229 28.9071 25.1605 28.0138C26.0982 27.1205 26.625 25.9088 26.625 24.6455V23.4546H17.25C16.587 23.4546 15.9511 23.2037 15.4822 22.757C15.0134 22.3103 14.75 21.7045 14.75 21.0728V11.5458C14.75 10.9141 15.0134 10.3083 15.4822 9.86166C15.9511 9.415 16.587 9.16406 17.25 9.16406H26.625C27.288 9.16406 27.9239 9.415 28.3928 9.86166C28.8616 10.3083 29.125 10.9141 29.125 11.5458ZM44.75 9.16406H35.375C34.712 9.16406 34.0761 9.415 33.6072 9.86166C33.1384 10.3083 32.875 10.9141 32.875 11.5458V21.0728C32.875 21.7045 33.1384 22.3103 33.6072 22.757C34.0761 23.2037 34.712 23.4546 35.375 23.4546H44.75V24.6455C44.75 25.9088 44.2232 27.1205 43.2855 28.0138C42.3479 28.9071 41.0761 29.409 39.75 29.409C39.4185 29.409 39.1005 29.5345 38.8661 29.7578C38.6317 29.9811 38.5 30.284 38.5 30.5999C38.5 30.9157 38.6317 31.2186 38.8661 31.442C39.1005 31.6653 39.4185 31.7908 39.75 31.7908C41.7385 31.7888 43.6449 31.0354 45.051 29.6958C46.4571 28.3562 47.2479 26.5399 47.25 24.6455V11.5458C47.25 10.9141 46.9866 10.3083 46.5178 9.86166C46.0489 9.415 45.413 9.16406 44.75 9.16406Z" fill="var(--fill-0, white)" fill-opacity="0.7"/>
</g>
<defs>
<clipPath id="clip0_0_4">
<rect width="49" height="49" fill="white"/>
</clipPath>
</defs>
</svg>
